<?xml version="1.0" encoding="UTF-8" standalone="no"?><svg xmlns="http://www.w3.org/2000/svg" xmlns:xlink="http://www.w3.org/1999/xlink" contentScriptType="application/ecmascript" contentStyleType="text/css" height="104px" preserveAspectRatio="none" style="width:527px;height:104px;" version="1.1" viewBox="0 0 527 104" width="527px" zoomAndPan="magnify"><defs><filter height="300%" id="f1ip7qho18exxz" width="300%" x="-1" y="-1"><feGaussianBlur result="blurOut" stdDeviation="2.0"/><feColorMatrix in="blurOut" result="blurOut2" type="matrix" values="0 0 0 0 0 0 0 0 0 0 0 0 0 0 0 0 0 0 .4 0"/><feOffset dx="4.0" dy="4.0" in="blurOut2" result="blurOut3"/><feBlend in="SourceGraphic" in2="blurOut3" mode="normal"/></filter></defs><g><!--cluster barcade network--><polygon fill="#FFFFFF" filter="url(#f1ip7qho18exxz)" points="14,26,24,16,209,16,209,82,199,92,14,92,14,26" style="stroke: #000000; stroke-width: 1.5;"/><line style="stroke: #000000; stroke-width: 1.5;" x1="199" x2="208" y1="26" y2="17"/><line style="stroke: #000000; stroke-width: 1.5;" x1="14" x2="199" y1="26" y2="26"/><line style="stroke: #000000; stroke-width: 1.5;" x1="199" x2="199" y1="26" y2="92"/><text fill="#000000" font-family="sans-serif" font-size="14" font-weight="bold" lengthAdjust="spacingAndGlyphs" textLength="119" x="48" y="42.5352">barcade network</text><!--cluster internet--><polygon fill="#FFFFFF" filter="url(#f1ip7qho18exxz)" points="222,26,232,16,505,16,505,82,495,92,222,92,222,26" style="stroke: #000000; stroke-width: 1.5;"/><line style="stroke: #000000; stroke-width: 1.5;" x1="495" x2="504" y1="26" y2="17"/><line style="stroke: #000000; stroke-width: 1.5;" x1="222" x2="495" y1="26" y2="26"/><line style="stroke: #000000; stroke-width: 1.5;" x1="495" x2="495" y1="26" y2="92"/><text fill="#000000" font-family="sans-serif" font-size="14" font-weight="bold" lengthAdjust="spacingAndGlyphs" textLength="57" x="331" y="42.5352">internet</text><!--entity cabinet--><rect fill="#FEFECE" filter="url(#f1ip7qho18exxz)" height="36.4883" style="stroke: #A80036; stroke-width: 1.5;" width="70" x="56" y="48"/><rect fill="#FEFECE" height="5" style="stroke: #A80036; stroke-width: 1.5;" width="10" x="51" y="53"/><rect fill="#FEFECE" height="5" style="stroke: #A80036; stroke-width: 1.5;" width="10" x="51" y="74.4883"/><text fill="#000000" font-family="sans-serif" font-size="14" lengthAdjust="spacingAndGlyphs" textLength="50" x="66" y="71.5352">cabinet</text><!--entity pi--><rect fill="#FEFECE" filter="url(#f1ip7qho18exxz)" height="36.4883" style="stroke: #A80036; stroke-width: 1.5;" width="33" x="161.5" y="48"/><rect fill="#FEFECE" height="5" style="stroke: #A80036; stroke-width: 1.5;" width="10" x="156.5" y="53"/><rect fill="#FEFECE" height="5" style="stroke: #A80036; stroke-width: 1.5;" width="10" x="156.5" y="74.4883"/><text fill="#000000" font-family="sans-serif" font-size="14" lengthAdjust="spacingAndGlyphs" textLength="13" x="171.5" y="71.5352">pi</text><!--entity server--><rect fill="#FEFECE" filter="url(#f1ip7qho18exxz)" height="36.4883" style="stroke: #A80036; stroke-width: 1.5;" width="62" x="230" y="48"/><rect fill="#FEFECE" height="5" style="stroke: #A80036; stroke-width: 1.5;" width="10" x="225" y="53"/><rect fill="#FEFECE" height="5" style="stroke: #A80036; stroke-width: 1.5;" width="10" x="225" y="74.4883"/><text fill="#000000" font-family="sans-serif" font-size="14" lengthAdjust="spacingAndGlyphs" textLength="42" x="240" y="71.5352">server</text><!--entity iphone4 why god why--><rect fill="#FEFECE" filter="url(#f1ip7qho18exxz)" height="36.4883" style="stroke: #A80036; stroke-width: 1.5;" width="170" x="327" y="48"/><rect fill="#FEFECE" height="5" style="stroke: #A80036; stroke-width: 1.5;" width="10" x="322" y="53"/><rect fill="#FEFECE" height="5" style="stroke: #A80036; stroke-width: 1.5;" width="10" x="322" y="74.4883"/><text fill="#000000" font-family="sans-serif" font-size="14" lengthAdjust="spacingAndGlyphs" textLength="150" x="337" y="71.5352">iphone4 why god why</text><!--link cabinet to pi--><path d="M131.2499,66 C141.2816,66 151.3133,66 161.345,66 " fill="none" id="cabinet-pi" style="stroke: #A80036; stroke-width: 1.0;"/><polygon fill="#A80036" points="126.0039,66,135.0039,70,131.0039,66,135.0039,62,126.0039,66" style="stroke: #A80036; stroke-width: 1.0;"/><!--link pi to server--><path d="M194.5352,74.6147 C204.6498,78.5733 214.7645,80.1262 224.8792,79.2732 " fill="none" id="pi-server" style="stroke: #A80036; stroke-width: 1.0;"/><polygon fill="#A80036" points="229.8446,78.6612,220.4228,75.7923,224.8822,79.2729,221.4016,83.7322,229.8446,78.6612" style="stroke: #A80036; stroke-width: 1.0;"/><!--link server to iphone4 why god why--><path d="M297.3994,66 C307.2241,66 317.0488,66 326.8736,66 " fill="none" id="server-iphone4 why god why" style="stroke: #A80036; stroke-width: 1.0;"/><polygon fill="#A80036" points="292.2617,66,301.2617,70,297.2617,66,301.2617,62,292.2617,66" style="stroke: #A80036; stroke-width: 1.0;"/><!--
@startuml
node "barcade network" {
  [cabinet] <- [pi]
}

node "internet" {
  [pi] -> [server]
  [server] <- [iphone4 why god why]
}
@enduml

PlantUML version 1.2018.01(Sun Jan 28 10:08:22 PST 2018)
(GPL source distribution)
Java Runtime: Java(TM) SE Runtime Environment
JVM: Java HotSpot(TM) 64-Bit Server VM
Java Version: 1.8.0_121-b13
Operating System: Mac OS X
OS Version: 10.13.2
Default Encoding: UTF-8
Language: en
Country: US
--></g></svg>